<svg xmlns="http://www.w3.org/2000/svg" xmlns:xlink="http://www.w3.org/1999/xlink" viewBox="0 0 2048 2048"><defs><style>.a{fill:none;}.b,.c{fill:#fff;}.c{stroke:#000;stroke-miterlimit:10;}.d{fill:url(#a);}.e{fill:url(#b);}.f{fill:#fffff7;}.g{fill:#e6e6e6;}.h{fill:url(#c);}.i{clip-path:url(#d);}.j{fill:url(#e);}.k{fill:url(#f);}.l{fill:url(#g);}.m{clip-path:url(#h);}.n{fill:url(#i);}.o{fill:url(#j);}.p{fill:url(#k);}.q{fill:url(#l);}</style><linearGradient id="a" x1="490.002" y1="1068.38" x2="490.002" y2="1987.478" gradientUnits="userSpaceOnUse"><stop offset="0" stop-color="#ff475d"/><stop offset="0.266" stop-color="#ff4b5f"/><stop offset="0.54" stop-color="#ff5864"/><stop offset="0.817" stop-color="#ff6c6c"/><stop offset="1" stop-color="#ff7e73"/></linearGradient><linearGradient id="b" x1="1649.56" y1="971.294" x2="1649.56" y2="1896.721" gradientUnits="userSpaceOnUse"><stop offset="0" stop-color="#ff67cb"/><stop offset="0.363" stop-color="#ff65c7"/><stop offset="0.736" stop-color="#fe60bb"/><stop offset="1" stop-color="#fe5bad"/></linearGradient><radialGradient id="c" cx="1438.45" cy="1417.548" r="151.887" gradientTransform="matrix(-1, 0, 0, 1, 2098.123, 0)" gradientUnits="userSpaceOnUse"><stop offset="0" stop-color="#69b0e9"/><stop offset="0.039" stop-color="#68abe3"/><stop offset="0.351" stop-color="#6387b3"/><stop offset="0.627" stop-color="#5f6c90"/><stop offset="0.852" stop-color="#5d5c7b"/><stop offset="1" stop-color="#5c5673"/></radialGradient><clipPath id="d"><ellipse class="a" cx="659.673" cy="1417.548" rx="84.816" ry="175.203" transform="matrix(0.983, -0.186, 0.186, 0.983, -251.94, 147.284)"/></clipPath><linearGradient id="e" x1="933.948" y1="1524.982" x2="809.551" y2="1309.521" gradientTransform="matrix(-1, 0, 0, 1, 1552.123, 0)" gradientUnits="userSpaceOnUse"><stop offset="0" stop-color="#5ca3ff"/><stop offset="0.078" stop-color="#5ba1fc"/><stop offset="0.144" stop-color="#579af1"/><stop offset="0.206" stop-color="#508fe0"/><stop offset="0.264" stop-color="#4680c7"/><stop offset="0.321" stop-color="#3a6ca8"/><stop offset="0.376" stop-color="#2b5481"/><stop offset="0.381" stop-color="#29517d"/><stop offset="0.684" stop-color="#2a537f"/><stop offset="0.826" stop-color="#2e5887"/><stop offset="0.934" stop-color="#356193"/><stop offset="0.997" stop-color="#3b6a9f"/></linearGradient><radialGradient id="f" cx="2351.034" cy="1246.267" r="45.636" gradientTransform="matrix(0, -0.797, -0.649, 0, 1456.101, 3172.695)" gradientUnits="userSpaceOnUse"><stop offset="0" stop-color="#fefefd"/><stop offset="0.139" stop-color="#fafbfb"/><stop offset="0.282" stop-color="#edf1f5"/><stop offset="0.428" stop-color="#d9e2eb"/><stop offset="0.575" stop-color="#bcccdd"/><stop offset="0.723" stop-color="#96afcb"/><stop offset="0.87" stop-color="#6a8db5"/><stop offset="1" stop-color="#3b6a9f"/></radialGradient><radialGradient id="g" cx="1438.45" cy="1417.548" r="151.887" gradientTransform="matrix(1, 0, 0, 1, 0, 0)" xlink:href="#c"/><clipPath id="h"><ellipse class="a" cx="1438.45" cy="1417.548" rx="175.203" ry="84.816" transform="matrix(0.186, -0.983, 0.983, 0.186, -221.721, 2567.51)"/></clipPath><linearGradient id="i" x1="933.948" y1="1524.982" x2="809.551" y2="1309.521" gradientTransform="translate(546)" xlink:href="#e"/><radialGradient id="j" cx="2351.034" cy="1246.267" r="45.636" gradientTransform="translate(-423.181 489.872) scale(0.797 0.649)" xlink:href="#f"/><linearGradient id="k" x1="1683.061" y1="1087.944" x2="1683.061" y2="1996.356" gradientUnits="userSpaceOnUse"><stop offset="0" stop-color="#a2d7ea"/><stop offset="0.434" stop-color="#a4d8ee"/><stop offset="0.911" stop-color="#abddfc"/><stop offset="1" stop-color="#addeff"/></linearGradient><linearGradient id="l" x1="-93.118" y1="1200.328" x2="1794.096" y2="694.651" gradientUnits="userSpaceOnUse"><stop offset="0" stop-color="#ff8399"/><stop offset="0.104" stop-color="#ff8799"/><stop offset="0.211" stop-color="#fe9499"/><stop offset="0.319" stop-color="#fea898"/><stop offset="0.428" stop-color="#fcc597"/><stop offset="0.464" stop-color="#fcd097"/><stop offset="0.536" stop-color="#f4d59e"/><stop offset="0.647" stop-color="#dfe2b1"/><stop offset="0.683" stop-color="#d7e7b8"/><stop offset="0.759" stop-color="#c7e5cc"/><stop offset="0.917" stop-color="#abe2f1"/><stop offset="1" stop-color="#a0e1ff"/></linearGradient></defs><path class="b" d="M2030.285,1618.8c-184.472-791.858-234-918.154-418.489-1093.977-263.97-251.569-634.81-222.807-811.739-142.15a12.11,12.11,0,0,1-15.5-4.948c-28.791-49.6-172.417-286.643-206.9-343.529a7.418,7.418,0,0,0-13.157.9c-41.314,95.583-294.55,681.7-346.794,808.161-3.464,8.384,6.272,16.016,13.6,10.664,26.939-19.684,62.332-46.776,92.19-69.083a10.431,10.431,0,0,1,16.255,11.3c-71.205,240.79-291.662,747.75-321.787,816.656a2.412,2.412,0,0,0,3.583,2.95c22.386-15.506,151.343-108.282,288.522-207.076C347.383,1561,425.81,1882.689,465.806,1984.9a4.069,4.069,0,0,0,7.691-.347l48.321-172.468a2.765,2.765,0,0,1,5.212-.345l58.383,102.138a2.726,2.726,0,0,0,5.232-.462c4.259-23.115,17.648-136.545,27.789-224.586,109.363,110.177,257.48,177.829,420.56,177.829,160.64,0,306.76-65.646,415.624-172.916l51.54,196.664a8.46,8.46,0,0,0,16.317.183c8.429-29.467,21.692-75.918,33.022-116.007l.234,16.133,54.522,203.44a2.979,2.979,0,0,0,5.737.049l134.425-475.95,82.392-86.315L2022.74,1623.01A4.5,4.5,0,0,0,2030.285,1618.8Z"/><path class="c" d="M1613.131,2008.738a15.39,15.39,0,0,1-14.831-11.354l-45.247-168.826c-6.842,24.043-13.458,47.2-18.674,65.437a20.841,20.841,0,0,1-40.2-.45l-46.216-176.354c-113.34,104.536-257.753,161.849-408.972,161.849-152.431,0-297.475-58-411.14-163.852-9.813,84.639-21.127,179.287-25.031,200.471a15.108,15.108,0,0,1-28.467,3.822l-46.819-81.908-42.161,150.478a16.451,16.451,0,0,1-31.1,1.357c-38.813-99.187-111.607-395.595-151.868-559.964C171.518,1523.7,50.547,1610.719,28.6,1625.923a14.791,14.791,0,0,1-21.977-18.089C31.785,1550.268,253.022,1042,326.19,798.283c-9.728,7.288-20.048,15.076-30.075,22.644-19.908,15.024-40.494,30.559-57.506,42.99a21.219,21.219,0,0,1-12.581,4.165,21.48,21.48,0,0,1-17.856-9.609,20.952,20.952,0,0,1-1.908-19.946C258.031,713.221,504.3,143.181,553.136,30.181a19.8,19.8,0,0,1,35.111-2.408C617.661,76.292,765.705,320.605,795.15,371.3c81.4-37.057,190.258-58.305,298.715-58.305,93.43,0,183.527,15.029,267.786,44.669,97.495,34.3,184.529,87.52,258.687,158.193,91.326,87.036,152.2,163.891,212.27,320.506,60.2,156.954,120.155,395.09,209.736,779.626a16.748,16.748,0,0,1-3.177,14.294,17.133,17.133,0,0,1-13.306,6.438h0a16.72,16.72,0,0,1-11.852-4.929l-181.021-182.1-71.492,74.895-133.589,472.99A15.257,15.257,0,0,1,1613.131,2008.738Z"/><path class="d" d="M690.587,1068.38c-145.3,28.181-341.738,180.775-401.171,258.781,2.216-1.54,123.24,521.911,176.39,657.738a4.069,4.069,0,0,0,7.691-.346l48.321-172.469a2.765,2.765,0,0,1,5.212-.345l58.384,102.138a2.725,2.725,0,0,0,5.231-.462c7.156-38.834,40.081-332.588,40.081-332.588Z"/><path class="e" d="M1418.639,1094.382l1.238,466.795,86.281,329.229a8.46,8.46,0,0,0,16.317.183c15.462-54.049,47.186-165.249,53.413-189.5l286.021-299.64,18.572-111.437C1574.65,714.26,1418.639,1094.382,1418.639,1094.382Z"/><ellipse class="f" cx="1038.994" cy="1223.145" rx="609.367" ry="643.513"/><ellipse class="g" cx="659.673" cy="1417.548" rx="84.816" ry="175.203" transform="matrix(0.983, -0.186, 0.186, 0.983, -251.94, 147.284)"/><path class="h" d="M743.011,1401.786c6.2,34.486,7.682,69.984,2.336,104.558a198.858,198.858,0,0,1-5.678,25.551,111.581,111.581,0,0,1-10.362,23.874,90.75,90.75,0,0,1-7.274,10.622,64.435,64.435,0,0,1-8.759,9.136,53.709,53.709,0,0,1-10.327,6.738,49.624,49.624,0,0,1-11.43,3.651,43.683,43.683,0,0,1-5.94.551,47.427,47.427,0,0,1-5.99-.143,52.783,52.783,0,0,1-11.892-2.709,77.938,77.938,0,0,1-21.855-12.557,134.609,134.609,0,0,1-18.57-18.087c-1.392-1.674-2.81-3.333-4.115-5.081-1.327-1.731-2.691-3.44-3.936-5.236s-2.581-3.533-3.766-5.373c-1.207-1.824-2.458-3.626-3.553-5.523-1.114-1.884-2.268-3.748-3.351-5.652s-2.124-3.833-3.157-5.766l-2.951-5.876c-.982-1.959-1.878-3.961-2.8-5.95q-5.4-11.994-9.768-24.416-4.314-12.426-7.719-25.14c-2.233-8.481-4.147-17.041-5.821-25.649-1.585-8.624-2.93-17.292-3.948-26-.967-8.715-1.648-17.461-1.995-26.223q-.456-13.146.177-26.3c.137-2.188.214-4.38.4-6.564l.558-6.553a45.669,45.669,0,0,1,1.076-6.492,38.807,38.807,0,0,1,2.3-6.287c.946-2.056,2.067-4.06,3.114-6.055.506-1,.979-2,1.522-2.986.507-.989.98-1.981,1.389-2.982,1.727-3.979,2.679-8.1,4.194-12.051a135.711,135.711,0,0,1,10.394-22.6,79.409,79.409,0,0,1,14.5-18.4,51.855,51.855,0,0,1,8.886-6.314,43.142,43.142,0,0,1,9.823-3.542,39.434,39.434,0,0,1,10.46-.475,48.161,48.161,0,0,1,10.635,2.618,60.111,60.111,0,0,1,10.411,5.013c1.721.947,3.385,2.074,5.069,3.16.856.518,1.648,1.161,2.471,1.751l2.455,1.8c12.931,10.034,24.572,22.929,34.346,37.178,1.187,1.806,2.415,3.592,3.575,5.424s2.281,3.69,3.394,5.555l3.2,5.683c1.065,1.9,2.049,3.839,3.049,5.774,3.9,7.784,7.573,15.727,10.751,23.878,1.539,4.091,3.146,8.168,4.514,12.329,1.421,4.143,2.634,8.352,3.906,12.546,1.194,4.217,2.306,8.458,3.265,12.735C741.278,1393.19,742.1,1397.5,743.011,1401.786Zm0,0c-1.59-8.626-3.55-17.173-5.6-25.708-1.09-4.249-2.124-8.519-3.367-12.731-1.122-4.249-2.392-8.457-3.651-12.675-2.657-8.387-5.492-16.745-8.785-24.953a248.521,248.521,0,0,0-11.033-24.209,201.3,201.3,0,0,0-13.935-22.949,146.174,146.174,0,0,0-17.464-21.1l-2.536-2.419c-.859-.8-1.676-1.639-2.6-2.382-1.811-1.519-3.579-3.1-5.548-4.488a75.489,75.489,0,0,0-12.511-7.68,73.056,73.056,0,0,0-14.6-5.258l-3.986-.711a32.4,32.4,0,0,0-4.079-.506,67.561,67.561,0,0,0-8.39-.171,64.6,64.6,0,0,0-16.845,3.521,73.829,73.829,0,0,0-15.224,8.007,84.49,84.49,0,0,0-22.494,23.581,102.3,102.3,0,0,0-12.23,27.85c-.6,2.4-1.233,4.8-1.7,7.193a17.245,17.245,0,0,0-.538,3.643,13.352,13.352,0,0,0,.512,3.841,26.026,26.026,0,0,0,4.163,8.105c1.026,1.378,2.051,2.736,3.088,4.078l3.112,3.963a26.9,26.9,0,0,1,4.292,7.356,11.822,11.822,0,0,1,.708,3.4,20.9,20.9,0,0,1-.241,3.282l-.558,6.553c-.187,2.184-.264,4.376-.4,6.564q-.645,13.136-.177,26.3c.347,8.762,1.028,17.508,1.995,26.223,1.018,8.71,2.363,17.378,3.948,26,1.674,8.608,3.588,17.168,5.821,25.649q3.423,12.7,7.719,25.14,4.377,12.4,9.768,24.416c3.562,8.013,7.5,15.855,11.749,23.541a215.515,215.515,0,0,0,13.958,22.414,138.238,138.238,0,0,0,17.312,20.273A83.739,83.739,0,0,0,665.177,1590a59.355,59.355,0,0,0,13.5,3.9,50,50,0,0,0,7.138.346,51.389,51.389,0,0,0,7.132-.76,47.271,47.271,0,0,0,13.26-5.152,58.194,58.194,0,0,0,10.9-8.685,84.008,84.008,0,0,0,15.114-22.339c3.837-8.058,6.5-16.514,9.034-24.94a197.1,197.1,0,0,0,5.69-25.773c.3-2.179.654-4.352.921-6.534l.732-6.557.5-6.576c.169-2.192.227-4.39.346-6.584q.533-13.175-.049-26.347c-.423-8.771-1.18-17.52-2.223-26.232C746.086,1419.056,744.655,1410.4,743.011,1401.786Z"/><g class="i"><path class="j" d="M617.575,1441.073c6.527,39.162,30.135,117.8,88.53,130.629,19.387,4.259,78.109-77.256,60.052-172.727s-99.52-139.656-118.246-136.819C607.051,1268.347,611.384,1403.928,617.575,1441.073Z"/></g><ellipse class="k" cx="647.291" cy="1298.682" rx="19.192" ry="34.05" transform="translate(-477.488 381.931) rotate(-24.326)"/><ellipse class="g" cx="1438.45" cy="1417.548" rx="175.203" ry="84.816" transform="matrix(0.186, -0.983, 0.983, 0.186, -221.721, 2567.51)"/><path class="l" d="M1355.112,1401.786c-6.2,34.486-7.682,69.984-2.336,104.558a198.693,198.693,0,0,0,5.679,25.551,111.527,111.527,0,0,0,10.361,23.874,90.75,90.75,0,0,0,7.274,10.622,64.435,64.435,0,0,0,8.759,9.136,53.74,53.74,0,0,0,10.327,6.738,49.624,49.624,0,0,0,11.43,3.651,43.683,43.683,0,0,0,5.94.551,47.418,47.418,0,0,0,5.99-.143,52.783,52.783,0,0,0,11.892-2.709,77.957,77.957,0,0,0,21.856-12.557,134.658,134.658,0,0,0,18.569-18.087c1.392-1.674,2.81-3.333,4.115-5.081,1.328-1.731,2.691-3.44,3.936-5.236,1.26-1.785,2.581-3.533,3.766-5.373,1.207-1.824,2.458-3.626,3.553-5.523,1.114-1.884,2.268-3.748,3.351-5.652s2.124-3.833,3.157-5.766l2.951-5.876c.982-1.959,1.878-3.961,2.8-5.95q5.4-11.994,9.768-24.416,4.315-12.426,7.72-25.14c2.232-8.481,4.146-17.041,5.82-25.649,1.585-8.624,2.93-17.292,3.948-26,.967-8.715,1.648-17.461,1.995-26.223q.456-13.146-.176-26.3c-.138-2.188-.214-4.38-.4-6.564l-.558-6.553a45.814,45.814,0,0,0-1.077-6.492,38.9,38.9,0,0,0-2.3-6.287c-.946-2.056-2.068-4.06-3.115-6.055-.506-1-.979-2-1.522-2.986-.507-.989-.98-1.981-1.389-2.982-1.727-3.979-2.679-8.1-4.194-12.051a135.55,135.55,0,0,0-10.394-22.6,79.405,79.405,0,0,0-14.5-18.4,51.9,51.9,0,0,0-8.887-6.314,43.125,43.125,0,0,0-9.823-3.542,39.426,39.426,0,0,0-10.459-.475,48.148,48.148,0,0,0-10.635,2.618,60.12,60.12,0,0,0-10.412,5.013c-1.721.947-3.384,2.074-5.069,3.16-.856.518-1.648,1.161-2.471,1.751l-2.455,1.8c-12.931,10.034-24.572,22.929-34.346,37.178-1.187,1.806-2.415,3.592-3.575,5.424s-2.28,3.69-3.393,5.555l-3.2,5.683c-1.065,1.9-2.049,3.839-3.049,5.774-3.9,7.784-7.572,15.727-10.751,23.878-1.539,4.091-3.146,8.168-4.514,12.329-1.421,4.143-2.634,8.352-3.906,12.546-1.194,4.217-2.306,8.458-3.265,12.735C1356.845,1393.19,1356.023,1397.5,1355.112,1401.786Zm0,0c1.591-8.626,3.551-17.173,5.6-25.708,1.09-4.249,2.124-8.519,3.367-12.731,1.122-4.249,2.392-8.457,3.651-12.675,2.657-8.387,5.492-16.745,8.785-24.953a248.292,248.292,0,0,1,11.034-24.209,201.149,201.149,0,0,1,13.934-22.949,146.174,146.174,0,0,1,17.464-21.1l2.537-2.419c.858-.8,1.676-1.639,2.6-2.382,1.812-1.519,3.579-3.1,5.548-4.488a75.489,75.489,0,0,1,12.511-7.68,73.1,73.1,0,0,1,14.6-5.258l3.986-.711a32.4,32.4,0,0,1,4.079-.506,67.561,67.561,0,0,1,8.39-.171,64.6,64.6,0,0,1,16.845,3.521,73.862,73.862,0,0,1,15.225,8.007,84.519,84.519,0,0,1,22.494,23.581,102.365,102.365,0,0,1,12.23,27.85c.6,2.4,1.232,4.8,1.7,7.193a17.181,17.181,0,0,1,.538,3.643,13.318,13.318,0,0,1-.512,3.841,26,26,0,0,1-4.163,8.105c-1.026,1.378-2.051,2.736-3.088,4.078l-3.112,3.963a26.9,26.9,0,0,0-4.292,7.356,11.856,11.856,0,0,0-.708,3.4,20.78,20.78,0,0,0,.242,3.282l.558,6.553c.187,2.184.263,4.376.4,6.564q.643,13.136.176,26.3c-.347,8.762-1.028,17.508-1.995,26.223-1.018,8.71-2.363,17.378-3.948,26-1.674,8.608-3.588,17.168-5.82,25.649q-3.425,12.7-7.72,25.14-4.376,12.4-9.768,24.416c-3.562,8.013-7.5,15.855-11.749,23.541a215.506,215.506,0,0,1-13.957,22.414,138.36,138.36,0,0,1-17.312,20.273A83.739,83.739,0,0,1,1432.947,1590a59.378,59.378,0,0,1-13.5,3.9,50,50,0,0,1-7.138.346,51.389,51.389,0,0,1-7.132-.76,47.271,47.271,0,0,1-13.26-5.152,58.155,58.155,0,0,1-10.9-8.685,84.011,84.011,0,0,1-15.115-22.339c-3.837-8.058-6.5-16.514-9.034-24.94a197.259,197.259,0,0,1-5.69-25.773c-.3-2.179-.653-4.352-.921-6.534l-.732-6.557-.5-6.576c-.169-2.192-.227-4.39-.346-6.584q-.533-13.175.049-26.347.636-13.157,2.223-26.232C1352.037,1419.056,1353.468,1410.4,1355.112,1401.786Z"/><g class="m"><path class="n" d="M1480.548,1441.073c-6.527,39.162-30.134,117.8-88.53,130.629-19.387,4.259-78.108-77.256-60.052-172.727s99.52-139.656,118.247-136.819C1491.073,1268.347,1486.739,1403.928,1480.548,1441.073Z"/></g><ellipse class="o" cx="1450.832" cy="1298.682" rx="34.05" ry="19.192" transform="translate(-330.181 2085.754) rotate(-65.674)"/><path class="p" d="M1809.793,1261.768l-16.6,135.826c-4.639-4.624-176.753,596.612-176.753,596.612a2.969,2.969,0,0,1-5.722-.049l-54.385-203.278,12.011-702.935Z"/><path class="q" d="M1460.737,1114.193l-214.205,262.5-284.813-101.8a34.737,34.737,0,0,0-38.956,11.186l-77.4,98.044L698.016,1184.769l-8.105-9.867a34.371,34.371,0,0,0-46.582-6.126c-118.4,84.847-577.607,416.369-621.784,446.969a2.412,2.412,0,0,1-3.583-2.95c30.125-68.9,250.582-575.866,321.787-816.656a10.431,10.431,0,0,0-16.255-11.3c-29.858,22.307-65.251,49.4-92.19,69.083-7.324,5.352-17.06-2.28-13.6-10.664C269.952,716.8,523.188,130.677,564.5,35.094a7.418,7.418,0,0,1,13.157-.9c34.485,56.886,178.111,293.933,206.9,343.529a12.11,12.11,0,0,0,15.5,4.948c176.929-80.657,547.768-109.419,811.739,142.15,184.491,175.823,234.017,302.119,418.489,1093.977a4.5,4.5,0,0,1-7.545,4.215l-227.074-225.892Z"/></svg>